<svg width="68" height="68" viewBox="0 0 68 68" fill="none" xmlns="http://www.w3.org/2000/svg">
<path d="M6.65795 61.8501L4.13059 64.3774L5.13739 66.5195L4.31704 67.3398L0.588152 59.0037L1.28421 58.3077L9.62448 62.0324L8.80827 62.8486L6.65795 61.8501ZM3.71627 63.4825L5.76716 61.4316L1.91812 59.6376L3.71627 63.4825ZM7.85119 59.2482C7.16342 58.5604 6.77396 57.845 6.68281 57.102C6.58889 56.3562 6.80572 55.7195 7.33329 55.192C7.85809 54.6672 8.45333 54.431 9.11901 54.4835L6.78224 52.1467L7.54873 51.3802L13.9127 57.7442L13.2084 58.4485L12.6905 58.0052C12.7595 58.6874 12.5206 59.302 11.9737 59.8489C11.4544 60.3682 10.8177 60.5795 10.0637 60.4828C9.31236 60.3834 8.5942 59.9912 7.90919 59.3062L7.85119 59.2482ZM8.70469 58.5687C9.21292 59.0769 9.71563 59.3697 10.2128 59.447C10.71 59.5244 11.1437 59.378 11.5138 59.0079C11.9999 58.5217 12.1366 57.9486 11.924 57.2884L9.86479 55.2293C9.21292 55.0359 8.64945 55.1768 8.17436 55.6519C7.79871 56.0275 7.65093 56.4653 7.73104 56.9653C7.81114 57.4652 8.13569 57.9997 8.70469 58.5687ZM15.5451 54.0319L13.2125 49.4785L13.9956 48.6954L16.8709 54.7859L16.2868 55.3701L10.1797 52.5113L10.9627 51.7282L15.5451 54.0319ZM21.1012 50.7214C20.4935 51.3291 19.8002 51.6247 19.0213 51.6081C18.2396 51.5888 17.5145 51.2449 16.8461 50.5764L16.7052 50.4356C16.2605 49.9909 15.9484 49.5103 15.7689 48.9937C15.5893 48.4717 15.5534 47.9607 15.6611 47.4607C15.7689 46.9553 16.0009 46.5244 16.3572 46.1681C16.94 45.5853 17.585 45.3242 18.2921 45.385C18.9992 45.4458 19.7104 45.8338 20.4258 46.5492L20.7448 46.8683L17.7079 49.9052C18.1609 50.3361 18.647 50.5654 19.1663 50.593C19.6856 50.6151 20.1358 50.4356 20.517 50.0544C20.7877 49.7837 20.9617 49.4992 21.039 49.2009C21.1163 48.9026 21.1343 48.5918 21.0929 48.2687L21.9257 48.1651C22.1273 49.118 21.8525 49.9701 21.1012 50.7214ZM16.987 46.7978C16.6776 47.1072 16.5312 47.4801 16.5478 47.9165C16.5616 48.3502 16.7466 48.7949 17.103 49.2506L19.3486 47.005L19.2906 46.947C18.879 46.5796 18.473 46.3835 18.0725 46.3587C17.6692 46.331 17.3074 46.4774 16.987 46.7978ZM22.0292 42.0373C21.8939 42.134 21.7585 42.25 21.6232 42.3853C21.1205 42.888 20.9934 43.4432 21.242 44.0509L24.424 47.2329L23.6575 47.9994L19.1746 43.5164L19.9203 42.7706L20.4507 43.2761C20.3015 42.6242 20.4576 42.0677 20.9189 41.6064C21.068 41.4572 21.2006 41.3633 21.3166 41.3247L22.0292 42.0373ZM22.2115 38.3084L23.2971 39.3939L24.134 38.557L24.7265 39.1495L23.8895 39.9864L26.6696 42.7665C26.8492 42.946 27.0218 43.0441 27.1875 43.0607C27.3505 43.0745 27.5217 42.9916 27.7013 42.8121C27.7897 42.7237 27.8946 42.5856 28.0162 42.3978L28.6376 43.0192C28.4912 43.2761 28.3228 43.4998 28.1322 43.6904C27.7897 44.0329 27.4278 44.1876 27.0467 44.1545C26.6655 44.1213 26.2843 43.9142 25.9031 43.533L23.123 40.7529L22.3068 41.5691L21.7143 40.9766L22.5306 40.1604L21.445 39.0749L22.2115 38.3084ZM29.1597 37.9397C28.4609 37.2408 28.0673 36.5241 27.9789 35.7893C27.8877 35.0519 28.1087 34.4166 28.6418 33.8835C29.1887 33.3366 29.8088 33.1032 30.5021 33.1833L30.0422 32.6488L30.7424 31.9486L35.1176 36.3238C35.6977 36.9039 35.9822 37.5336 35.9711 38.2131C35.9628 38.8898 35.6687 39.5182 35.0886 40.0983C34.7654 40.4214 34.3801 40.6687 33.9327 40.8399C33.4852 41.0112 33.0598 41.0581 32.6565 40.9808L32.5944 40.1231C33.3291 40.2005 33.934 40.0016 34.4091 39.5265C34.782 39.1536 34.9671 38.7586 34.9643 38.3416C34.9643 37.9217 34.7737 37.5212 34.3926 37.14L34.0072 36.7547C34.0542 37.4149 33.8125 38.0101 33.2822 38.5404C32.7574 39.0652 32.1207 39.2793 31.3722 39.1826C30.6264 39.0832 29.8889 38.6689 29.1597 37.9397ZM30.0173 37.256C30.5228 37.7615 31.0241 38.0557 31.5213 38.1385C32.0157 38.2186 32.4494 38.0722 32.8223 37.6994C33.3057 37.216 33.441 36.6415 33.2283 35.9758L31.1816 33.929C30.5187 33.7357 29.9524 33.8738 29.4829 34.3434C29.11 34.7163 28.9636 35.1527 29.0437 35.6526C29.1238 36.1526 29.4483 36.687 30.0173 37.256ZM33.8995 33.1916C33.4603 32.7524 33.151 32.2718 32.9714 31.7497C32.7947 31.2249 32.7643 30.7139 32.8803 30.2167C32.9991 29.7168 33.2559 29.2693 33.6509 28.8743C34.2614 28.2639 34.9657 27.9822 35.764 28.0291C36.565 28.0733 37.3163 28.4462 38.0179 29.1478L38.0717 29.2016C38.5081 29.6381 38.8161 30.1145 38.9957 30.6311C39.1752 31.142 39.2056 31.6503 39.0868 32.1558C38.9708 32.6585 38.7112 33.1115 38.3079 33.5147C37.7002 34.1224 36.9959 34.4041 36.1948 34.3599C35.3966 34.313 34.6494 33.9415 33.9534 33.2454L33.8995 33.1916ZM34.7613 32.5121C35.2585 33.0093 35.7722 33.2938 36.3026 33.3656C36.8357 33.4346 37.2956 33.2758 37.6823 32.8891C38.0717 32.4996 38.2292 32.0384 38.1546 31.5053C38.0772 30.9694 37.7637 30.4267 37.2141 29.877C36.7224 29.3853 36.2073 29.105 35.6687 29.0359C35.13 28.9613 34.6674 29.1174 34.2807 29.5041C33.9023 29.8825 33.7476 30.3383 33.8166 30.8714C33.8857 31.4045 34.2006 31.9514 34.7613 32.5121ZM43.1679 28.6547C42.5602 29.2624 41.8669 29.558 41.088 29.5414C40.3063 29.5221 39.5812 29.1782 38.9128 28.5097L38.7719 28.3689C38.3272 27.9242 38.0151 27.4435 37.8356 26.927C37.656 26.405 37.6201 25.894 37.7278 25.394C37.8356 24.8886 38.0676 24.4577 38.4239 24.1014C39.0067 23.5186 39.6517 23.2575 40.3588 23.3183C41.0659 23.3791 41.7771 23.7671 42.4925 24.4825L42.8115 24.8016L39.7746 27.8385C40.2276 28.2694 40.7137 28.4987 41.233 28.5263C41.7523 28.5484 42.2025 28.3689 42.5837 27.9877C42.8544 27.717 43.0284 27.4325 43.1057 27.1342C43.183 26.8359 43.201 26.5251 43.1596 26.202L43.9924 26.0984C44.194 27.0513 43.9192 27.9034 43.1679 28.6547ZM39.0537 24.7311C38.7443 25.0405 38.5979 25.4134 38.6145 25.8498C38.6283 26.2835 38.8133 26.7282 39.1697 27.1839L41.4153 24.9383L41.3573 24.8803C40.9457 24.5129 40.5397 24.3168 40.1392 24.292C39.7359 24.2643 39.3741 24.4107 39.0537 24.7311ZM47.1453 22.1333C46.9382 21.9262 46.6992 21.8447 46.4286 21.8889C46.1579 21.9276 45.7864 22.1002 45.314 22.4068C44.8445 22.7106 44.4371 22.9192 44.0918 23.0324C43.7493 23.1429 43.4427 23.1733 43.172 23.1236C42.9041 23.0711 42.6596 22.9344 42.4387 22.7134C42.0713 22.346 41.9152 21.8806 41.9705 21.3171C42.0285 20.7509 42.2992 20.2261 42.7825 19.7427C43.2908 19.2345 43.8335 18.9541 44.4108 18.9016C44.9909 18.8464 45.4853 19.0232 45.8941 19.432L45.1234 20.2026C44.9135 19.9927 44.6428 19.9015 44.3114 19.9292C43.9827 19.954 43.683 20.1018 43.4123 20.3725C43.1333 20.6515 42.9759 20.9304 42.94 21.2094C42.9041 21.4884 42.9842 21.7259 43.1803 21.922C43.3653 22.1071 43.578 22.1734 43.8183 22.1209C44.0586 22.0684 44.4122 21.8944 44.879 21.5989C45.3486 21.3006 45.7615 21.092 46.1178 20.9732C46.4741 20.8545 46.7932 20.8227 47.0749 20.878C47.3566 20.9277 47.6177 21.0727 47.858 21.313C48.2585 21.7135 48.4201 22.1955 48.3427 22.759C48.2626 23.3197 47.9671 23.8555 47.4561 24.3665C47.097 24.7256 46.7158 24.9797 46.3125 25.1289C45.9093 25.278 45.5157 25.3181 45.1317 25.249C44.7478 25.1745 44.4232 25.0046 44.1581 24.7394L44.9246 23.9729C45.1953 24.216 45.5019 24.3182 45.8444 24.2795C46.1869 24.2353 46.5156 24.0558 46.8304 23.7409C47.1205 23.4509 47.2945 23.1609 47.3525 22.8708C47.4105 22.5753 47.3414 22.3295 47.1453 22.1333ZM49.0305 14.746C48.9532 13.9892 49.1866 13.3387 49.7307 12.7946C50.6781 11.8471 51.6904 11.9038 52.7677 12.9644L55.7301 15.9268L54.9636 16.6933L51.997 13.7268C51.6711 13.4064 51.3576 13.242 51.0565 13.2337C50.7582 13.2227 50.4558 13.3705 50.1492 13.6771C49.9006 13.9257 49.7486 14.2102 49.6934 14.5306C49.6382 14.851 49.6658 15.1714 49.7763 15.4918L52.9707 18.6862L52.2042 19.4527L45.8402 13.0887L46.6067 12.3222L49.0305 14.746ZM58.8209 13.0017C58.2132 13.6094 57.5199 13.9049 56.741 13.8884C55.9593 13.869 55.2342 13.5251 54.5658 12.8567L54.4249 12.7158C53.9802 12.2711 53.6681 11.7905 53.4886 11.274C53.309 10.752 53.2731 10.241 53.3809 9.74102C53.4886 9.23555 53.7206 8.80466 54.0769 8.44834C54.6597 7.86553 55.3047 7.60451 56.0118 7.66527C56.7189 7.72604 57.4301 8.11412 58.1455 8.82952L58.4646 9.14854L55.4276 12.1855C55.8806 12.6164 56.3667 12.8457 56.886 12.8733C57.4053 12.8954 57.8555 12.7158 58.2367 12.3347C58.5074 12.064 58.6814 11.7795 58.7587 11.4812C58.8361 11.1829 58.854 10.8721 58.8126 10.5489L59.6454 10.4454C59.847 11.3983 59.5722 12.2504 58.8209 13.0017ZM54.7067 9.07811C54.3973 9.38747 54.2509 9.76035 54.2675 10.1968C54.2813 10.6304 54.4664 11.0751 54.8227 11.5309L57.0683 9.28527L57.0103 9.22726C56.5987 8.8599 56.1927 8.66379 55.7922 8.63893C55.3889 8.61131 55.0271 8.7577 54.7067 9.07811ZM59.749 4.31757C59.6136 4.41424 59.4783 4.53025 59.3429 4.6656C58.8402 5.1683 58.7132 5.72349 58.9617 6.33116L62.1437 9.51314L61.3772 10.2796L56.8943 5.79669L57.6401 5.05091L58.1704 5.55638C58.0212 4.90452 58.1773 4.34795 58.6386 3.88667C58.7877 3.73752 58.9203 3.64361 59.0363 3.60494L59.749 4.31757ZM66.1129 5.70968C65.5052 6.31735 64.812 6.6129 64.033 6.59633C63.2513 6.57699 62.5263 6.23311 61.8578 5.56467L61.717 5.4238C61.2723 4.9791 60.9602 4.49849 60.7806 3.98197C60.6011 3.45992 60.5652 2.94893 60.6729 2.44898C60.7806 1.94351 61.0126 1.51262 61.369 1.1563C61.9518 0.573491 62.5967 0.312469 63.3038 0.373236C64.0109 0.434003 64.7222 0.822083 65.4376 1.53748L65.7566 1.8565L62.7196 4.89347C63.1726 5.32436 63.6588 5.55362 64.178 5.58124C64.6973 5.60334 65.1476 5.4238 65.5287 5.04263C65.7994 4.77194 65.9734 4.48744 66.0508 4.18913C66.1281 3.89082 66.1461 3.58008 66.1046 3.25691L66.9374 3.15333C67.1391 4.10626 66.8642 4.95838 66.1129 5.70968ZM61.9987 1.78607C61.6894 2.09543 61.543 2.46832 61.5595 2.90473C61.5733 3.33839 61.7584 3.78309 62.1147 4.23885L64.3603 1.99323L64.3023 1.93522C63.8908 1.56786 63.4847 1.37175 63.0842 1.34689C62.681 1.31927 62.3191 1.46566 61.9987 1.78607Z" fill="black"/>
</svg>
