<svg width="249" height="37" viewBox="0 0 249 37" fill="none" xmlns="http://www.w3.org/2000/svg">
<path d="M188.578 31.7617C188 32.5898 187.191 33.2109 186.152 33.625C185.121 34.0312 183.918 34.2344 182.543 34.2344C181.152 34.2344 179.918 33.9102 178.84 33.2617C177.762 32.6055 176.926 31.6758 176.332 30.4727C175.746 29.2695 175.445 27.875 175.43 26.2891V24.8008C175.43 22.2305 176.027 20.2383 177.223 18.8242C178.426 17.4102 180.113 16.7031 182.285 16.7031C184.066 16.7031 185.5 17.1602 186.586 18.0742C187.672 18.9805 188.336 20.2695 188.578 21.9414H186.328C185.906 19.6836 184.562 18.5547 182.297 18.5547C180.789 18.5547 179.645 19.0859 178.863 20.1484C178.09 21.2031 177.699 22.7344 177.691 24.7422V26.1367C177.691 28.0508 178.129 29.5742 179.004 30.707C179.879 31.832 181.062 32.3945 182.555 32.3945C183.398 32.3945 184.137 32.3008 184.77 32.1133C185.402 31.9258 185.926 31.6094 186.34 31.1641V27.332H182.391V25.5039H188.578V31.7617ZM199.828 34C199.703 33.75 199.602 33.3047 199.523 32.6641C198.516 33.7109 197.312 34.2344 195.914 34.2344C194.664 34.2344 193.637 33.8828 192.832 33.1797C192.035 32.4688 191.637 31.5703 191.637 30.4844C191.637 29.1641 192.137 28.1406 193.137 27.4141C194.145 26.6797 195.559 26.3125 197.379 26.3125H199.488V25.3164C199.488 24.5586 199.262 23.957 198.809 23.5117C198.355 23.0586 197.688 22.832 196.805 22.832C196.031 22.832 195.383 23.0273 194.859 23.418C194.336 23.8086 194.074 24.2812 194.074 24.8359H191.895C191.895 24.2031 192.117 23.5938 192.562 23.0078C193.016 22.4141 193.625 21.9453 194.391 21.6016C195.164 21.2578 196.012 21.0859 196.934 21.0859C198.395 21.0859 199.539 21.4531 200.367 22.1875C201.195 22.9141 201.625 23.918 201.656 25.1992V31.0352C201.656 32.1992 201.805 33.125 202.102 33.8125V34H199.828ZM196.23 32.3477C196.91 32.3477 197.555 32.1719 198.164 31.8203C198.773 31.4688 199.215 31.0117 199.488 30.4492V27.8477H197.789C195.133 27.8477 193.805 28.625 193.805 30.1797C193.805 30.8594 194.031 31.3906 194.484 31.7734C194.938 32.1562 195.52 32.3477 196.23 32.3477ZM207.094 21.3203L207.152 22.7266C208.082 21.6328 209.336 21.0859 210.914 21.0859C212.688 21.0859 213.895 21.7656 214.535 23.125C214.957 22.5156 215.504 22.0234 216.176 21.6484C216.855 21.2734 217.656 21.0859 218.578 21.0859C221.359 21.0859 222.773 22.5586 222.82 25.5039V34H220.652V25.6328C220.652 24.7266 220.445 24.0508 220.031 23.6055C219.617 23.1523 218.922 22.9258 217.945 22.9258C217.141 22.9258 216.473 23.168 215.941 23.6523C215.41 24.1289 215.102 24.7734 215.016 25.5859V34H212.836V25.6914C212.836 23.8477 211.934 22.9258 210.129 22.9258C208.707 22.9258 207.734 23.5312 207.211 24.7422V34H205.043V21.3203H207.094ZM231.363 34.2344C229.645 34.2344 228.246 33.6719 227.168 32.5469C226.09 31.4141 225.551 29.9023 225.551 28.0117V27.6133C225.551 26.3555 225.789 25.2344 226.266 24.25C226.75 23.2578 227.422 22.4844 228.281 21.9297C229.148 21.3672 230.086 21.0859 231.094 21.0859C232.742 21.0859 234.023 21.6289 234.938 22.7148C235.852 23.8008 236.309 25.3555 236.309 27.3789V28.2812H227.719C227.75 29.5312 228.113 30.543 228.809 31.3164C229.512 32.082 230.402 32.4648 231.48 32.4648C232.246 32.4648 232.895 32.3086 233.426 31.9961C233.957 31.6836 234.422 31.2695 234.82 30.7539L236.145 31.7852C235.082 33.418 233.488 34.2344 231.363 34.2344ZM231.094 22.8672C230.219 22.8672 229.484 23.1875 228.891 23.8281C228.297 24.4609 227.93 25.3516 227.789 26.5H234.141V26.3359C234.078 25.2344 233.781 24.3828 233.25 23.7812C232.719 23.1719 232 22.8672 231.094 22.8672ZM246.211 30.6367C246.211 30.0508 245.988 29.5977 245.543 29.2773C245.105 28.9492 244.336 28.668 243.234 28.4336C242.141 28.1992 241.27 27.918 240.621 27.5898C239.98 27.2617 239.504 26.8711 239.191 26.418C238.887 25.9648 238.734 25.4258 238.734 24.8008C238.734 23.7617 239.172 22.8828 240.047 22.1641C240.93 21.4453 242.055 21.0859 243.422 21.0859C244.859 21.0859 246.023 21.457 246.914 22.1992C247.812 22.9414 248.262 23.8906 248.262 25.0469H246.082C246.082 24.4531 245.828 23.9414 245.32 23.5117C244.82 23.082 244.188 22.8672 243.422 22.8672C242.633 22.8672 242.016 23.0391 241.57 23.3828C241.125 23.7266 240.902 24.1758 240.902 24.7305C240.902 25.2539 241.109 25.6484 241.523 25.9141C241.938 26.1797 242.684 26.4336 243.762 26.6758C244.848 26.918 245.727 27.207 246.398 27.543C247.07 27.8789 247.566 28.2852 247.887 28.7617C248.215 29.2305 248.379 29.8047 248.379 30.4844C248.379 31.6172 247.926 32.5273 247.02 33.2148C246.113 33.8945 244.938 34.2344 243.492 34.2344C242.477 34.2344 241.578 34.0547 240.797 33.6953C240.016 33.3359 239.402 32.8359 238.957 32.1953C238.52 31.5469 238.301 30.8477 238.301 30.0977H240.469C240.508 30.8242 240.797 31.4023 241.336 31.832C241.883 32.2539 242.602 32.4648 243.492 32.4648C244.312 32.4648 244.969 32.3008 245.461 31.9727C245.961 31.6367 246.211 31.1914 246.211 30.6367Z" fill="#F4B142"/>
<path d="M27.0625 25.1719C26.6406 28.7812 25.3047 31.5703 23.0547 33.5391C20.8203 35.4922 17.8438 36.4688 14.125 36.4688C10.0938 36.4688 6.85938 35.0234 4.42188 32.1328C2 29.2422 0.789062 25.375 0.789062 20.5312V17.25C0.789062 14.0781 1.35156 11.2891 2.47656 8.88281C3.61719 6.47656 5.22656 4.63281 7.30469 3.35156C9.38281 2.05469 11.7891 1.40625 14.5234 1.40625C18.1484 1.40625 21.0547 2.42187 23.2422 4.45312C25.4297 6.46875 26.7031 9.26562 27.0625 12.8438H22.5391C22.1484 10.125 21.2969 8.15625 19.9844 6.9375C18.6875 5.71875 16.8672 5.10938 14.5234 5.10938C11.6484 5.10938 9.39062 6.17187 7.75 8.29688C6.125 10.4219 5.3125 13.4453 5.3125 17.3672V20.6719C5.3125 24.375 6.08594 27.3203 7.63281 29.5078C9.17969 31.6953 11.3438 32.7891 14.125 32.7891C16.625 32.7891 18.5391 32.2266 19.8672 31.1016C21.2109 29.9609 22.1016 27.9844 22.5391 25.1719H27.0625ZM44.8047 14.5312C44.1484 14.4219 43.4375 14.3672 42.6719 14.3672C39.8281 14.3672 37.8984 15.5781 36.8828 18V36H32.5469V10.6406H36.7656L36.8359 13.5703C38.2578 11.3047 40.2734 10.1719 42.8828 10.1719C43.7266 10.1719 44.3672 10.2812 44.8047 10.5V14.5312ZM53.5234 36H49.1875V10.6406H53.5234V36ZM48.8359 3.91406C48.8359 3.21094 49.0469 2.61719 49.4688 2.13281C49.9062 1.64844 50.5469 1.40625 51.3906 1.40625C52.2344 1.40625 52.875 1.64844 53.3125 2.13281C53.75 2.61719 53.9688 3.21094 53.9688 3.91406C53.9688 4.61719 53.75 5.20312 53.3125 5.67188C52.875 6.14062 52.2344 6.375 51.3906 6.375C50.5469 6.375 49.9062 6.14062 49.4688 5.67188C49.0469 5.20312 48.8359 4.61719 48.8359 3.91406ZM66.3672 4.5V10.6406H71.1016V13.9922H66.3672V29.7188C66.3672 30.7344 66.5781 31.5 67 32.0156C67.4219 32.5156 68.1406 32.7656 69.1562 32.7656C69.6562 32.7656 70.3438 32.6719 71.2188 32.4844V36C70.0781 36.3125 68.9688 36.4688 67.8906 36.4688C65.9531 36.4688 64.4922 35.8828 63.5078 34.7109C62.5234 33.5391 62.0312 31.875 62.0312 29.7188V13.9922H57.4141V10.6406H62.0312V4.5H66.3672ZM80.8984 36H76.5625V10.6406H80.8984V36ZM76.2109 3.91406C76.2109 3.21094 76.4219 2.61719 76.8438 2.13281C77.2812 1.64844 77.9219 1.40625 78.7656 1.40625C79.6094 1.40625 80.25 1.64844 80.6875 2.13281C81.125 2.61719 81.3438 3.21094 81.3438 3.91406C81.3438 4.61719 81.125 5.20312 80.6875 5.67188C80.25 6.14062 79.6094 6.375 78.7656 6.375C77.9219 6.375 77.2812 6.14062 76.8438 5.67188C76.4219 5.20312 76.2109 4.61719 76.2109 3.91406ZM98.0312 32.9297C99.5781 32.9297 100.93 32.4609 102.086 31.5234C103.242 30.5859 103.883 29.4141 104.008 28.0078H108.109C108.031 29.4609 107.531 30.8438 106.609 32.1562C105.688 33.4688 104.453 34.5156 102.906 35.2969C101.375 36.0781 99.75 36.4688 98.0312 36.4688C94.5781 36.4688 91.8281 35.3203 89.7812 33.0234C87.75 30.7109 86.7344 27.5547 86.7344 23.5547V22.8281C86.7344 20.3594 87.1875 18.1641 88.0938 16.2422C89 14.3203 90.2969 12.8281 91.9844 11.7656C93.6875 10.7031 95.6953 10.1719 98.0078 10.1719C100.852 10.1719 103.211 11.0234 105.086 12.7266C106.977 14.4297 107.984 16.6406 108.109 19.3594H104.008C103.883 17.7188 103.258 16.375 102.133 15.3281C101.023 14.2656 99.6484 13.7344 98.0078 13.7344C95.8047 13.7344 94.0938 14.5312 92.875 16.125C91.6719 17.7031 91.0703 19.9922 91.0703 22.9922V23.8125C91.0703 26.7344 91.6719 28.9844 92.875 30.5625C94.0781 32.1406 95.7969 32.9297 98.0312 32.9297ZM120.062 24.2578L117.344 27.0938V36H113.008V0H117.344V21.7734L119.664 18.9844L127.562 10.6406H132.836L122.969 21.2344L133.984 36H128.898L120.062 24.2578ZM147.367 36.4688C143.93 36.4688 141.133 35.3438 138.977 33.0938C136.82 30.8281 135.742 27.8047 135.742 24.0234V23.2266C135.742 20.7109 136.219 18.4688 137.172 16.5C138.141 14.5156 139.484 12.9688 141.203 11.8594C142.938 10.7344 144.812 10.1719 146.828 10.1719C150.125 10.1719 152.688 11.2578 154.516 13.4297C156.344 15.6016 157.258 18.7109 157.258 22.7578V24.5625H140.078C140.141 27.0625 140.867 29.0859 142.258 30.6328C143.664 32.1641 145.445 32.9297 147.602 32.9297C149.133 32.9297 150.43 32.6172 151.492 31.9922C152.555 31.3672 153.484 30.5391 154.281 29.5078L156.93 31.5703C154.805 34.8359 151.617 36.4688 147.367 36.4688ZM146.828 13.7344C145.078 13.7344 143.609 14.375 142.422 15.6562C141.234 16.9219 140.5 18.7031 140.219 21H152.922V20.6719C152.797 18.4688 152.203 16.7656 151.141 15.5625C150.078 14.3438 148.641 13.7344 146.828 13.7344ZM174.555 14.5312C173.898 14.4219 173.188 14.3672 172.422 14.3672C169.578 14.3672 167.648 15.5781 166.633 18V36H162.297V10.6406H166.516L166.586 13.5703C168.008 11.3047 170.023 10.1719 172.633 10.1719C173.477 10.1719 174.117 10.2812 174.555 10.5V14.5312Z" fill="white"/>
</svg>
