<svg width="310" height="140" viewBox="0 0 310 140" fill="none" xmlns="http://www.w3.org/2000/svg">
<rect width="310" height="140" fill="black"/>
<path d="M31.8867 96.9375L37.4648 110.859L43.043 96.9375H45.9609V114H43.7109V107.355L43.9219 100.184L38.3203 114H36.5977L31.0078 100.219L31.2305 107.355V114H28.9805V96.9375H31.8867ZM49.0195 107.543C49.0195 106.301 49.2617 105.184 49.7461 104.191C50.2383 103.199 50.918 102.434 51.7852 101.895C52.6602 101.355 53.6562 101.086 54.7734 101.086C56.5 101.086 57.8945 101.684 58.957 102.879C60.0273 104.074 60.5625 105.664 60.5625 107.648V107.801C60.5625 109.035 60.3242 110.145 59.8477 111.129C59.3789 112.105 58.7031 112.867 57.8203 113.414C56.9453 113.961 55.9375 114.234 54.7969 114.234C53.0781 114.234 51.6836 113.637 50.6133 112.441C49.5508 111.246 49.0195 109.664 49.0195 107.695V107.543ZM51.1992 107.801C51.1992 109.207 51.5234 110.336 52.1719 111.188C52.8281 112.039 53.7031 112.465 54.7969 112.465C55.8984 112.465 56.7734 112.035 57.4219 111.176C58.0703 110.309 58.3945 109.098 58.3945 107.543C58.3945 106.152 58.0625 105.027 57.3984 104.168C56.7422 103.301 55.8672 102.867 54.7734 102.867C53.7031 102.867 52.8398 103.293 52.1836 104.145C51.5273 104.996 51.1992 106.215 51.1992 107.801ZM67.2773 111.059L70.418 101.32H72.6328L68.0859 114H66.4336L61.8398 101.32H64.0547L67.2773 111.059ZM77.0742 114H74.9062V101.32H77.0742V114ZM74.7305 97.957C74.7305 97.6055 74.8359 97.3086 75.0469 97.0664C75.2656 96.8242 75.5859 96.7031 76.0078 96.7031C76.4297 96.7031 76.75 96.8242 76.9688 97.0664C77.1875 97.3086 77.2969 97.6055 77.2969 97.957C77.2969 98.3086 77.1875 98.6016 76.9688 98.8359C76.75 99.0703 76.4297 99.1875 76.0078 99.1875C75.5859 99.1875 75.2656 99.0703 75.0469 98.8359C74.8359 98.6016 74.7305 98.3086 74.7305 97.957ZM85.8164 114.234C84.0977 114.234 82.6992 113.672 81.6211 112.547C80.543 111.414 80.0039 109.902 80.0039 108.012V107.613C80.0039 106.355 80.2422 105.234 80.7188 104.25C81.2031 103.258 81.875 102.484 82.7344 101.93C83.6016 101.367 84.5391 101.086 85.5469 101.086C87.1953 101.086 88.4766 101.629 89.3906 102.715C90.3047 103.801 90.7617 105.355 90.7617 107.379V108.281H82.1719C82.2031 109.531 82.5664 110.543 83.2617 111.316C83.9648 112.082 84.8555 112.465 85.9336 112.465C86.6992 112.465 87.3477 112.309 87.8789 111.996C88.4102 111.684 88.875 111.27 89.2734 110.754L90.5977 111.785C89.5352 113.418 87.9414 114.234 85.8164 114.234ZM85.5469 102.867C84.6719 102.867 83.9375 103.188 83.3438 103.828C82.75 104.461 82.3828 105.352 82.2422 106.5H88.5938V106.336C88.5312 105.234 88.2344 104.383 87.7031 103.781C87.1719 103.172 86.4531 102.867 85.5469 102.867ZM93.2109 117.398L91.9805 116.555C92.7148 115.531 93.0977 114.477 93.1289 113.391V111.434H95.25V113.133C95.25 113.922 95.0547 114.711 94.6641 115.5C94.2812 116.289 93.7969 116.922 93.2109 117.398ZM115.605 98.7891H110.121V114H107.883V98.7891H102.41V96.9375H115.605V98.7891ZM123.973 111.012L128.848 96.9375H131.309L124.98 114H122.988L116.672 96.9375H119.121L123.973 111.012ZM138.762 109.418C138.762 108.598 138.988 107.844 139.441 107.156C139.902 106.469 140.777 105.668 142.066 104.754C141.309 103.832 140.801 103.09 140.543 102.527C140.285 101.965 140.156 101.406 140.156 100.852C140.156 99.5547 140.539 98.5391 141.305 97.8047C142.07 97.0703 143.109 96.7031 144.422 96.7031C145.594 96.7031 146.562 97.0469 147.328 97.7344C148.094 98.4141 148.477 99.2734 148.477 100.312C148.477 101 148.301 101.637 147.949 102.223C147.605 102.801 147 103.41 146.133 104.051L144.879 104.977L148.676 109.512C149.207 108.496 149.473 107.367 149.473 106.125H151.43C151.43 108.117 150.949 109.77 149.988 111.082L152.426 114H149.824L148.688 112.652C148.109 113.168 147.43 113.562 146.648 113.836C145.875 114.102 145.086 114.234 144.281 114.234C142.617 114.234 141.281 113.793 140.273 112.91C139.266 112.027 138.762 110.863 138.762 109.418ZM144.281 112.465C145.43 112.465 146.48 112.027 147.434 111.152L143.273 106.172L142.887 106.453C141.582 107.414 140.93 108.402 140.93 109.418C140.93 110.34 141.227 111.078 141.82 111.633C142.422 112.188 143.242 112.465 144.281 112.465ZM142.324 100.781C142.324 101.531 142.785 102.469 143.707 103.594L145.09 102.621C145.621 102.246 145.984 101.891 146.18 101.555C146.375 101.211 146.473 100.797 146.473 100.312C146.473 99.7891 146.277 99.3555 145.887 99.0117C145.496 98.6602 145.004 98.4844 144.41 98.4844C143.77 98.4844 143.262 98.7031 142.887 99.1406C142.512 99.5703 142.324 100.117 142.324 100.781ZM173.039 111.762C172.461 112.59 171.652 113.211 170.613 113.625C169.582 114.031 168.379 114.234 167.004 114.234C165.613 114.234 164.379 113.91 163.301 113.262C162.223 112.605 161.387 111.676 160.793 110.473C160.207 109.27 159.906 107.875 159.891 106.289V104.801C159.891 102.23 160.488 100.238 161.684 98.8242C162.887 97.4102 164.574 96.7031 166.746 96.7031C168.527 96.7031 169.961 97.1602 171.047 98.0742C172.133 98.9805 172.797 100.27 173.039 101.941H170.789C170.367 99.6836 169.023 98.5547 166.758 98.5547C165.25 98.5547 164.105 99.0859 163.324 100.148C162.551 101.203 162.16 102.734 162.152 104.742V106.137C162.152 108.051 162.59 109.574 163.465 110.707C164.34 111.832 165.523 112.395 167.016 112.395C167.859 112.395 168.598 112.301 169.23 112.113C169.863 111.926 170.387 111.609 170.801 111.164V107.332H166.852V105.504H173.039V111.762ZM184.289 114C184.164 113.75 184.062 113.305 183.984 112.664C182.977 113.711 181.773 114.234 180.375 114.234C179.125 114.234 178.098 113.883 177.293 113.18C176.496 112.469 176.098 111.57 176.098 110.484C176.098 109.164 176.598 108.141 177.598 107.414C178.605 106.68 180.02 106.312 181.84 106.312H183.949V105.316C183.949 104.559 183.723 103.957 183.27 103.512C182.816 103.059 182.148 102.832 181.266 102.832C180.492 102.832 179.844 103.027 179.32 103.418C178.797 103.809 178.535 104.281 178.535 104.836H176.355C176.355 104.203 176.578 103.594 177.023 103.008C177.477 102.414 178.086 101.945 178.852 101.602C179.625 101.258 180.473 101.086 181.395 101.086C182.855 101.086 184 101.453 184.828 102.188C185.656 102.914 186.086 103.918 186.117 105.199V111.035C186.117 112.199 186.266 113.125 186.562 113.812V114H184.289ZM180.691 112.348C181.371 112.348 182.016 112.172 182.625 111.82C183.234 111.469 183.676 111.012 183.949 110.449V107.848H182.25C179.594 107.848 178.266 108.625 178.266 110.18C178.266 110.859 178.492 111.391 178.945 111.773C179.398 112.156 179.98 112.348 180.691 112.348ZM191.555 101.32L191.613 102.727C192.543 101.633 193.797 101.086 195.375 101.086C197.148 101.086 198.355 101.766 198.996 103.125C199.418 102.516 199.965 102.023 200.637 101.648C201.316 101.273 202.117 101.086 203.039 101.086C205.82 101.086 207.234 102.559 207.281 105.504V114H205.113V105.633C205.113 104.727 204.906 104.051 204.492 103.605C204.078 103.152 203.383 102.926 202.406 102.926C201.602 102.926 200.934 103.168 200.402 103.652C199.871 104.129 199.562 104.773 199.477 105.586V114H197.297V105.691C197.297 103.848 196.395 102.926 194.59 102.926C193.168 102.926 192.195 103.531 191.672 104.742V114H189.504V101.32H191.555ZM215.824 114.234C214.105 114.234 212.707 113.672 211.629 112.547C210.551 111.414 210.012 109.902 210.012 108.012V107.613C210.012 106.355 210.25 105.234 210.727 104.25C211.211 103.258 211.883 102.484 212.742 101.93C213.609 101.367 214.547 101.086 215.555 101.086C217.203 101.086 218.484 101.629 219.398 102.715C220.312 103.801 220.77 105.355 220.77 107.379V108.281H212.18C212.211 109.531 212.574 110.543 213.27 111.316C213.973 112.082 214.863 112.465 215.941 112.465C216.707 112.465 217.355 112.309 217.887 111.996C218.418 111.684 218.883 111.27 219.281 110.754L220.605 111.785C219.543 113.418 217.949 114.234 215.824 114.234ZM215.555 102.867C214.68 102.867 213.945 103.188 213.352 103.828C212.758 104.461 212.391 105.352 212.25 106.5H218.602V106.336C218.539 105.234 218.242 104.383 217.711 103.781C217.18 103.172 216.461 102.867 215.555 102.867ZM230.672 110.637C230.672 110.051 230.449 109.598 230.004 109.277C229.566 108.949 228.797 108.668 227.695 108.434C226.602 108.199 225.73 107.918 225.082 107.59C224.441 107.262 223.965 106.871 223.652 106.418C223.348 105.965 223.195 105.426 223.195 104.801C223.195 103.762 223.633 102.883 224.508 102.164C225.391 101.445 226.516 101.086 227.883 101.086C229.32 101.086 230.484 101.457 231.375 102.199C232.273 102.941 232.723 103.891 232.723 105.047H230.543C230.543 104.453 230.289 103.941 229.781 103.512C229.281 103.082 228.648 102.867 227.883 102.867C227.094 102.867 226.477 103.039 226.031 103.383C225.586 103.727 225.363 104.176 225.363 104.73C225.363 105.254 225.57 105.648 225.984 105.914C226.398 106.18 227.145 106.434 228.223 106.676C229.309 106.918 230.188 107.207 230.859 107.543C231.531 107.879 232.027 108.285 232.348 108.762C232.676 109.23 232.84 109.805 232.84 110.484C232.84 111.617 232.387 112.527 231.48 113.215C230.574 113.895 229.398 114.234 227.953 114.234C226.938 114.234 226.039 114.055 225.258 113.695C224.477 113.336 223.863 112.836 223.418 112.195C222.98 111.547 222.762 110.848 222.762 110.098H224.93C224.969 110.824 225.258 111.402 225.797 111.832C226.344 112.254 227.062 112.465 227.953 112.465C228.773 112.465 229.43 112.301 229.922 111.973C230.422 111.637 230.672 111.191 230.672 110.637Z" fill="#0000FF"/>
<path d="M135.062 57.1719C134.641 60.7812 133.305 63.5703 131.055 65.5391C128.82 67.4922 125.844 68.4688 122.125 68.4688C118.094 68.4688 114.859 67.0234 112.422 64.1328C110 61.2422 108.789 57.375 108.789 52.5312V49.25C108.789 46.0781 109.352 43.2891 110.477 40.8828C111.617 38.4766 113.227 36.6328 115.305 35.3516C117.383 34.0547 119.789 33.4062 122.523 33.4062C126.148 33.4062 129.055 34.4219 131.242 36.4531C133.43 38.4688 134.703 41.2656 135.062 44.8438H130.539C130.148 42.125 129.297 40.1562 127.984 38.9375C126.688 37.7188 124.867 37.1094 122.523 37.1094C119.648 37.1094 117.391 38.1719 115.75 40.2969C114.125 42.4219 113.312 45.4453 113.312 49.3672V52.6719C113.312 56.375 114.086 59.3203 115.633 61.5078C117.18 63.6953 119.344 64.7891 122.125 64.7891C124.625 64.7891 126.539 64.2266 127.867 63.1016C129.211 61.9609 130.102 59.9844 130.539 57.1719H135.062ZM152.805 46.5312C152.148 46.4219 151.438 46.3672 150.672 46.3672C147.828 46.3672 145.898 47.5781 144.883 50V68H140.547V42.6406H144.766L144.836 45.5703C146.258 43.3047 148.273 42.1719 150.883 42.1719C151.727 42.1719 152.367 42.2812 152.805 42.5V46.5312ZM161.523 68H157.188V42.6406H161.523V68ZM156.836 35.9141C156.836 35.2109 157.047 34.6172 157.469 34.1328C157.906 33.6484 158.547 33.4062 159.391 33.4062C160.234 33.4062 160.875 33.6484 161.312 34.1328C161.75 34.6172 161.969 35.2109 161.969 35.9141C161.969 36.6172 161.75 37.2031 161.312 37.6719C160.875 38.1406 160.234 38.375 159.391 38.375C158.547 38.375 157.906 38.1406 157.469 37.6719C157.047 37.2031 156.836 36.6172 156.836 35.9141ZM174.367 36.5V42.6406H179.102V45.9922H174.367V61.7188C174.367 62.7344 174.578 63.5 175 64.0156C175.422 64.5156 176.141 64.7656 177.156 64.7656C177.656 64.7656 178.344 64.6719 179.219 64.4844V68C178.078 68.3125 176.969 68.4688 175.891 68.4688C173.953 68.4688 172.492 67.8828 171.508 66.7109C170.523 65.5391 170.031 63.875 170.031 61.7188V45.9922H165.414V42.6406H170.031V36.5H174.367ZM188.898 68H184.562V42.6406H188.898V68ZM184.211 35.9141C184.211 35.2109 184.422 34.6172 184.844 34.1328C185.281 33.6484 185.922 33.4062 186.766 33.4062C187.609 33.4062 188.25 33.6484 188.688 34.1328C189.125 34.6172 189.344 35.2109 189.344 35.9141C189.344 36.6172 189.125 37.2031 188.688 37.6719C188.25 38.1406 187.609 38.375 186.766 38.375C185.922 38.375 185.281 38.1406 184.844 37.6719C184.422 37.2031 184.211 36.6172 184.211 35.9141ZM206.031 64.9297C207.578 64.9297 208.93 64.4609 210.086 63.5234C211.242 62.5859 211.883 61.4141 212.008 60.0078H216.109C216.031 61.4609 215.531 62.8438 214.609 64.1562C213.688 65.4688 212.453 66.5156 210.906 67.2969C209.375 68.0781 207.75 68.4688 206.031 68.4688C202.578 68.4688 199.828 67.3203 197.781 65.0234C195.75 62.7109 194.734 59.5547 194.734 55.5547V54.8281C194.734 52.3594 195.188 50.1641 196.094 48.2422C197 46.3203 198.297 44.8281 199.984 43.7656C201.688 42.7031 203.695 42.1719 206.008 42.1719C208.852 42.1719 211.211 43.0234 213.086 44.7266C214.977 46.4297 215.984 48.6406 216.109 51.3594H212.008C211.883 49.7188 211.258 48.375 210.133 47.3281C209.023 46.2656 207.648 45.7344 206.008 45.7344C203.805 45.7344 202.094 46.5312 200.875 48.125C199.672 49.7031 199.07 51.9922 199.07 54.9922V55.8125C199.07 58.7344 199.672 60.9844 200.875 62.5625C202.078 64.1406 203.797 64.9297 206.031 64.9297ZM228.062 56.2578L225.344 59.0938V68H221.008V32H225.344V53.7734L227.664 50.9844L235.562 42.6406H240.836L230.969 53.2344L241.984 68H236.898L228.062 56.2578ZM255.367 68.4688C251.93 68.4688 249.133 67.3438 246.977 65.0938C244.82 62.8281 243.742 59.8047 243.742 56.0234V55.2266C243.742 52.7109 244.219 50.4688 245.172 48.5C246.141 46.5156 247.484 44.9688 249.203 43.8594C250.938 42.7344 252.812 42.1719 254.828 42.1719C258.125 42.1719 260.688 43.2578 262.516 45.4297C264.344 47.6016 265.258 50.7109 265.258 54.7578V56.5625H248.078C248.141 59.0625 248.867 61.0859 250.258 62.6328C251.664 64.1641 253.445 64.9297 255.602 64.9297C257.133 64.9297 258.43 64.6172 259.492 63.9922C260.555 63.3672 261.484 62.5391 262.281 61.5078L264.93 63.5703C262.805 66.8359 259.617 68.4688 255.367 68.4688ZM254.828 45.7344C253.078 45.7344 251.609 46.375 250.422 47.6562C249.234 48.9219 248.5 50.7031 248.219 53H260.922V52.6719C260.797 50.4688 260.203 48.7656 259.141 47.5625C258.078 46.3438 256.641 45.7344 254.828 45.7344ZM282.555 46.5312C281.898 46.4219 281.188 46.3672 280.422 46.3672C277.578 46.3672 275.648 47.5781 274.633 50V68H270.297V42.6406H274.516L274.586 45.5703C276.008 43.3047 278.023 42.1719 280.633 42.1719C281.477 42.1719 282.117 42.2812 282.555 42.5V46.5312Z" fill="white"/>
</svg>