<svg width="310" height="89" viewBox="0 0 310 89" fill="none" xmlns="http://www.w3.org/2000/svg">
<rect width="310" height="89" fill="black"/>
<path d="M218.578 54.7617C218 55.5898 217.191 56.2109 216.152 56.625C215.121 57.0312 213.918 57.2344 212.543 57.2344C211.152 57.2344 209.918 56.9102 208.84 56.2617C207.762 55.6055 206.926 54.6758 206.332 53.4727C205.746 52.2695 205.445 50.875 205.43 49.2891V47.8008C205.43 45.2305 206.027 43.2383 207.223 41.8242C208.426 40.4102 210.113 39.7031 212.285 39.7031C214.066 39.7031 215.5 40.1602 216.586 41.0742C217.672 41.9805 218.336 43.2695 218.578 44.9414H216.328C215.906 42.6836 214.562 41.5547 212.297 41.5547C210.789 41.5547 209.645 42.0859 208.863 43.1484C208.09 44.2031 207.699 45.7344 207.691 47.7422V49.1367C207.691 51.0508 208.129 52.5742 209.004 53.707C209.879 54.832 211.062 55.3945 212.555 55.3945C213.398 55.3945 214.137 55.3008 214.77 55.1133C215.402 54.9258 215.926 54.6094 216.34 54.1641V50.332H212.391V48.5039H218.578V54.7617ZM229.828 57C229.703 56.75 229.602 56.3047 229.523 55.6641C228.516 56.7109 227.312 57.2344 225.914 57.2344C224.664 57.2344 223.637 56.8828 222.832 56.1797C222.035 55.4688 221.637 54.5703 221.637 53.4844C221.637 52.1641 222.137 51.1406 223.137 50.4141C224.145 49.6797 225.559 49.3125 227.379 49.3125H229.488V48.3164C229.488 47.5586 229.262 46.957 228.809 46.5117C228.355 46.0586 227.688 45.832 226.805 45.832C226.031 45.832 225.383 46.0273 224.859 46.418C224.336 46.8086 224.074 47.2812 224.074 47.8359H221.895C221.895 47.2031 222.117 46.5938 222.562 46.0078C223.016 45.4141 223.625 44.9453 224.391 44.6016C225.164 44.2578 226.012 44.0859 226.934 44.0859C228.395 44.0859 229.539 44.4531 230.367 45.1875C231.195 45.9141 231.625 46.918 231.656 48.1992V54.0352C231.656 55.1992 231.805 56.125 232.102 56.8125V57H229.828ZM226.23 55.3477C226.91 55.3477 227.555 55.1719 228.164 54.8203C228.773 54.4688 229.215 54.0117 229.488 53.4492V50.8477H227.789C225.133 50.8477 223.805 51.625 223.805 53.1797C223.805 53.8594 224.031 54.3906 224.484 54.7734C224.938 55.1562 225.52 55.3477 226.23 55.3477ZM237.094 44.3203L237.152 45.7266C238.082 44.6328 239.336 44.0859 240.914 44.0859C242.688 44.0859 243.895 44.7656 244.535 46.125C244.957 45.5156 245.504 45.0234 246.176 44.6484C246.855 44.2734 247.656 44.0859 248.578 44.0859C251.359 44.0859 252.773 45.5586 252.82 48.5039V57H250.652V48.6328C250.652 47.7266 250.445 47.0508 250.031 46.6055C249.617 46.1523 248.922 45.9258 247.945 45.9258C247.141 45.9258 246.473 46.168 245.941 46.6523C245.41 47.1289 245.102 47.7734 245.016 48.5859V57H242.836V48.6914C242.836 46.8477 241.934 45.9258 240.129 45.9258C238.707 45.9258 237.734 46.5312 237.211 47.7422V57H235.043V44.3203H237.094ZM261.363 57.2344C259.645 57.2344 258.246 56.6719 257.168 55.5469C256.09 54.4141 255.551 52.9023 255.551 51.0117V50.6133C255.551 49.3555 255.789 48.2344 256.266 47.25C256.75 46.2578 257.422 45.4844 258.281 44.9297C259.148 44.3672 260.086 44.0859 261.094 44.0859C262.742 44.0859 264.023 44.6289 264.938 45.7148C265.852 46.8008 266.309 48.3555 266.309 50.3789V51.2812H257.719C257.75 52.5312 258.113 53.543 258.809 54.3164C259.512 55.082 260.402 55.4648 261.48 55.4648C262.246 55.4648 262.895 55.3086 263.426 54.9961C263.957 54.6836 264.422 54.2695 264.82 53.7539L266.145 54.7852C265.082 56.418 263.488 57.2344 261.363 57.2344ZM261.094 45.8672C260.219 45.8672 259.484 46.1875 258.891 46.8281C258.297 47.4609 257.93 48.3516 257.789 49.5H264.141V49.3359C264.078 48.2344 263.781 47.3828 263.25 46.7812C262.719 46.1719 262 45.8672 261.094 45.8672ZM276.211 53.6367C276.211 53.0508 275.988 52.5977 275.543 52.2773C275.105 51.9492 274.336 51.668 273.234 51.4336C272.141 51.1992 271.27 50.918 270.621 50.5898C269.98 50.2617 269.504 49.8711 269.191 49.418C268.887 48.9648 268.734 48.4258 268.734 47.8008C268.734 46.7617 269.172 45.8828 270.047 45.1641C270.93 44.4453 272.055 44.0859 273.422 44.0859C274.859 44.0859 276.023 44.457 276.914 45.1992C277.812 45.9414 278.262 46.8906 278.262 48.0469H276.082C276.082 47.4531 275.828 46.9414 275.32 46.5117C274.82 46.082 274.188 45.8672 273.422 45.8672C272.633 45.8672 272.016 46.0391 271.57 46.3828C271.125 46.7266 270.902 47.1758 270.902 47.7305C270.902 48.2539 271.109 48.6484 271.523 48.9141C271.938 49.1797 272.684 49.4336 273.762 49.6758C274.848 49.918 275.727 50.207 276.398 50.543C277.07 50.8789 277.566 51.2852 277.887 51.7617C278.215 52.2305 278.379 52.8047 278.379 53.4844C278.379 54.6172 277.926 55.5273 277.02 56.2148C276.113 56.8945 274.938 57.2344 273.492 57.2344C272.477 57.2344 271.578 57.0547 270.797 56.6953C270.016 56.3359 269.402 55.8359 268.957 55.1953C268.52 54.5469 268.301 53.8477 268.301 53.0977H270.469C270.508 53.8242 270.797 54.4023 271.336 54.832C271.883 55.2539 272.602 55.4648 273.492 55.4648C274.312 55.4648 274.969 55.3008 275.461 54.9727C275.961 54.6367 276.211 54.1914 276.211 53.6367Z" fill="#0000FF"/>
<path d="M42.0625 48.1719C41.6406 51.7812 40.3047 54.5703 38.0547 56.5391C35.8203 58.4922 32.8438 59.4688 29.125 59.4688C25.0938 59.4688 21.8594 58.0234 19.4219 55.1328C17 52.2422 15.7891 48.375 15.7891 43.5312V40.25C15.7891 37.0781 16.3516 34.2891 17.4766 31.8828C18.6172 29.4766 20.2266 27.6328 22.3047 26.3516C24.3828 25.0547 26.7891 24.4062 29.5234 24.4062C33.1484 24.4062 36.0547 25.4219 38.2422 27.4531C40.4297 29.4688 41.7031 32.2656 42.0625 35.8438H37.5391C37.1484 33.125 36.2969 31.1562 34.9844 29.9375C33.6875 28.7188 31.8672 28.1094 29.5234 28.1094C26.6484 28.1094 24.3906 29.1719 22.75 31.2969C21.125 33.4219 20.3125 36.4453 20.3125 40.3672V43.6719C20.3125 47.375 21.0859 50.3203 22.6328 52.5078C24.1797 54.6953 26.3438 55.7891 29.125 55.7891C31.625 55.7891 33.5391 55.2266 34.8672 54.1016C36.2109 52.9609 37.1016 50.9844 37.5391 48.1719H42.0625ZM59.8047 37.5312C59.1484 37.4219 58.4375 37.3672 57.6719 37.3672C54.8281 37.3672 52.8984 38.5781 51.8828 41V59H47.5469V33.6406H51.7656L51.8359 36.5703C53.2578 34.3047 55.2734 33.1719 57.8828 33.1719C58.7266 33.1719 59.3672 33.2812 59.8047 33.5V37.5312ZM68.5234 59H64.1875V33.6406H68.5234V59ZM63.8359 26.9141C63.8359 26.2109 64.0469 25.6172 64.4688 25.1328C64.9062 24.6484 65.5469 24.4062 66.3906 24.4062C67.2344 24.4062 67.875 24.6484 68.3125 25.1328C68.75 25.6172 68.9688 26.2109 68.9688 26.9141C68.9688 27.6172 68.75 28.2031 68.3125 28.6719C67.875 29.1406 67.2344 29.375 66.3906 29.375C65.5469 29.375 64.9062 29.1406 64.4688 28.6719C64.0469 28.2031 63.8359 27.6172 63.8359 26.9141ZM81.3672 27.5V33.6406H86.1016V36.9922H81.3672V52.7188C81.3672 53.7344 81.5781 54.5 82 55.0156C82.4219 55.5156 83.1406 55.7656 84.1562 55.7656C84.6562 55.7656 85.3438 55.6719 86.2188 55.4844V59C85.0781 59.3125 83.9688 59.4688 82.8906 59.4688C80.9531 59.4688 79.4922 58.8828 78.5078 57.7109C77.5234 56.5391 77.0312 54.875 77.0312 52.7188V36.9922H72.4141V33.6406H77.0312V27.5H81.3672ZM95.8984 59H91.5625V33.6406H95.8984V59ZM91.2109 26.9141C91.2109 26.2109 91.4219 25.6172 91.8438 25.1328C92.2812 24.6484 92.9219 24.4062 93.7656 24.4062C94.6094 24.4062 95.25 24.6484 95.6875 25.1328C96.125 25.6172 96.3438 26.2109 96.3438 26.9141C96.3438 27.6172 96.125 28.2031 95.6875 28.6719C95.25 29.1406 94.6094 29.375 93.7656 29.375C92.9219 29.375 92.2812 29.1406 91.8438 28.6719C91.4219 28.2031 91.2109 27.6172 91.2109 26.9141ZM113.031 55.9297C114.578 55.9297 115.93 55.4609 117.086 54.5234C118.242 53.5859 118.883 52.4141 119.008 51.0078H123.109C123.031 52.4609 122.531 53.8438 121.609 55.1562C120.688 56.4688 119.453 57.5156 117.906 58.2969C116.375 59.0781 114.75 59.4688 113.031 59.4688C109.578 59.4688 106.828 58.3203 104.781 56.0234C102.75 53.7109 101.734 50.5547 101.734 46.5547V45.8281C101.734 43.3594 102.188 41.1641 103.094 39.2422C104 37.3203 105.297 35.8281 106.984 34.7656C108.688 33.7031 110.695 33.1719 113.008 33.1719C115.852 33.1719 118.211 34.0234 120.086 35.7266C121.977 37.4297 122.984 39.6406 123.109 42.3594H119.008C118.883 40.7188 118.258 39.375 117.133 38.3281C116.023 37.2656 114.648 36.7344 113.008 36.7344C110.805 36.7344 109.094 37.5312 107.875 39.125C106.672 40.7031 106.07 42.9922 106.07 45.9922V46.8125C106.07 49.7344 106.672 51.9844 107.875 53.5625C109.078 55.1406 110.797 55.9297 113.031 55.9297ZM135.062 47.2578L132.344 50.0938V59H128.008V23H132.344V44.7734L134.664 41.9844L142.562 33.6406H147.836L137.969 44.2344L148.984 59H143.898L135.062 47.2578ZM162.367 59.4688C158.93 59.4688 156.133 58.3438 153.977 56.0938C151.82 53.8281 150.742 50.8047 150.742 47.0234V46.2266C150.742 43.7109 151.219 41.4688 152.172 39.5C153.141 37.5156 154.484 35.9688 156.203 34.8594C157.938 33.7344 159.812 33.1719 161.828 33.1719C165.125 33.1719 167.688 34.2578 169.516 36.4297C171.344 38.6016 172.258 41.7109 172.258 45.7578V47.5625H155.078C155.141 50.0625 155.867 52.0859 157.258 53.6328C158.664 55.1641 160.445 55.9297 162.602 55.9297C164.133 55.9297 165.43 55.6172 166.492 54.9922C167.555 54.3672 168.484 53.5391 169.281 52.5078L171.93 54.5703C169.805 57.8359 166.617 59.4688 162.367 59.4688ZM161.828 36.7344C160.078 36.7344 158.609 37.375 157.422 38.6562C156.234 39.9219 155.5 41.7031 155.219 44H167.922V43.6719C167.797 41.4688 167.203 39.7656 166.141 38.5625C165.078 37.3438 163.641 36.7344 161.828 36.7344ZM189.555 37.5312C188.898 37.4219 188.188 37.3672 187.422 37.3672C184.578 37.3672 182.648 38.5781 181.633 41V59H177.297V33.6406H181.516L181.586 36.5703C183.008 34.3047 185.023 33.1719 187.633 33.1719C188.477 33.1719 189.117 33.2812 189.555 33.5V37.5312Z" fill="white"/>
</svg>
