<svg width="1951" height="1951" viewBox="0 0 1951 1951" fill="none" xmlns="http://www.w3.org/2000/svg"><g filter="url(#filter0_d_0_1)"><rect x="4" width="1943" height="1943" rx="500" fill="white"/></g><line x1="88.9525" y1="279.026" x2="227.952" y2="1700.03" stroke="#4285F4" stroke-width="20"/><line x1="329.693" y1="214.148" x2="477.576" y2="1725.09" stroke="#4285F4" stroke-width="20"/><line x1="1249.97" y1="142.519" x2="1404.86" y2="1725.07" stroke="#4285F4" stroke-width="35"/><line x1="1583.43" y1="61.0005" x2="1750.96" y2="1772.7" stroke="#4285F4" stroke-width="40"/><line x1="88.5283" y1="335.407" x2="336.528" y2="276.407" stroke="#4285F4" stroke-width="30"/><line x1="88.5283" y1="335.407" x2="336.528" y2="276.407" stroke="#4285F4" stroke-width="30"/><line x1="88.5283" y1="335.407" x2="336.528" y2="276.407" stroke="#4285F4" stroke-width="30"/><line x1="1236.18" y1="157.952" x2="1572.88" y2="77.862" stroke="#4285F4" stroke-width="30"/><line x1="176.535" y1="1208.01" x2="428.535" y2="1217.01" stroke="#4285F4" stroke-width="30"/><line x1="191.708" y1="1364.02" x2="445.708" y2="1376.02" stroke="#4285F4" stroke-width="30"/><line x1="211.492" y1="1511.01" x2="455.492" y2="1519.01" stroke="#4285F4" stroke-width="30"/><line x1="227.607" y1="1650.01" x2="474.607" y2="1660.02" stroke="#4285F4" stroke-width="30"/><line x1="1389.66" y1="1655.7" x2="1733.66" y2="1708.7" stroke="#4285F4" stroke-width="35"/><line x1="1389.66" y1="1508.7" x2="1733.66" y2="1561.7" stroke="#4285F4" stroke-width="35"/><line x1="1374.3" y1="1361.55" x2="1696.3" y2="1385.55" stroke="#4285F4" stroke-width="35"/><line x1="1351.97" y1="1214.53" x2="1695.97" y2="1233.53" stroke="#4285F4" stroke-width="35"/><line x1="1351" y1="1067.5" x2="1670" y2="1067.5" stroke="#4285F4" stroke-width="35"/><line x1="1308.69" y1="917.549" x2="1668.69" y2="890.549" stroke="#4285F4" stroke-width="35"/><line x1="1300.58" y1="762.668" x2="1644.58" y2="714.668" stroke="#4285F4" stroke-width="35"/><line x1="1298.96" y1="586.972" x2="1627.96" y2="508.972" stroke="#4285F4" stroke-width="35"/><line x1="1279.96" y1="371.972" x2="1608.96" y2="293.972" stroke="#4285F4" stroke-width="35"/><line x1="157.583" y1="1070.01" x2="409.583" y2="1063.01" stroke="#4285F4" stroke-width="30"/><line x1="157.492" y1="928.009" x2="393.492" y2="920.009" stroke="#4285F4" stroke-width="30"/><line x1="125.823" y1="773.001" x2="381.823" y2="769.977" stroke="#4285F4" stroke-width="30"/><line x1="124.878" y1="614.042" x2="364.878" y2="596.042" stroke="#4285F4" stroke-width="30"/><line x1="359.675" y1="457.503" x2="1277.68" y2="310.503" stroke="#4285F4" stroke-width="80"/><line x1="468.348" y1="1576" x2="1387.35" y2="1584" stroke="#4285F4" stroke-width="80"/><line x1="409.35" y1="994.005" x2="1332.35" y2="979.005" stroke="#4285F4" stroke-width="80"/><line x1="104.528" y1="482.407" x2="352.528" y2="423.407" stroke="#4285F4" stroke-width="30"/><defs><filter id="filter0_d_0_1" x="0" y="0" width="1951" height="1951" filterUnits="userSpaceOnUse" color-interpolation-filters="sRGB"><feFlood flood-opacity="0" result="BackgroundImageFix"/><feColorMatrix in="SourceAlpha" type="matrix" values="0 0 0 0 0 0 0 0 0 0 0 0 0 0 0 0 0 0 127 0" result="hardAlpha"/><feOffset dy="4"/><feGaussianBlur stdDeviation="2"/><feComposite in2="hardAlpha" operator="out"/><feColorMatrix type="matrix" values="0 0 0 0 0 0 0 0 0 0 0 0 0 0 0 0 0 0 0.25 0"/><feBlend mode="normal" in2="BackgroundImageFix" result="effect1_dropShadow_0_1"/><feBlend mode="normal" in="SourceGraphic" in2="effect1_dropShadow_0_1" result="shape"/></filter></defs></svg>
