<svg width="232" height="37" viewBox="0 0 232 37" fill="none" xmlns="http://www.w3.org/2000/svg"><path d="M185.391 28.4648H178.23V36H175.98V18.9375H186.551V20.7891H178.23V26.625H185.391V28.4648ZM191.262 36H189.094V23.3203H191.262V36ZM188.918 19.957C188.918 19.6055 189.023 19.3086 189.234 19.0664C189.453 18.8242 189.773 18.7031 190.195 18.7031C190.617 18.7031 190.938 18.8242 191.156 19.0664C191.375 19.3086 191.484 19.6055 191.484 19.957C191.484 20.3086 191.375 20.6016 191.156 20.8359C190.938 21.0703 190.617 21.1875 190.195 21.1875C189.773 21.1875 189.453 21.0703 189.234 20.8359C189.023 20.6016 188.918 20.3086 188.918 19.957ZM197.098 36H194.93V18H197.098V36ZM202.617 23.3203L202.676 24.7266C203.605 23.6328 204.859 23.0859 206.438 23.0859C208.211 23.0859 209.418 23.7656 210.059 25.125C210.48 24.5156 211.027 24.0234 211.699 23.6484C212.379 23.2734 213.18 23.0859 214.102 23.0859C216.883 23.0859 218.297 24.5586 218.344 27.5039V36H216.176V27.6328C216.176 26.7266 215.969 26.0508 215.555 25.6055C215.141 25.1523 214.445 24.9258 213.469 24.9258C212.664 24.9258 211.996 25.168 211.465 25.6523C210.934 26.1289 210.625 26.7734 210.539 27.5859V36H208.359V27.6914C208.359 25.8477 207.457 24.9258 205.652 24.9258C204.23 24.9258 203.258 25.5312 202.734 26.7422V36H200.566V23.3203H202.617ZM229.008 32.6367C229.008 32.0508 228.785 31.5977 228.34 31.2773C227.902 30.9492 227.133 30.668 226.031 30.4336C224.938 30.1992 224.066 29.918 223.418 29.5898C222.777 29.2617 222.301 28.8711 221.988 28.418C221.684 27.9648 221.531 27.4258 221.531 26.8008C221.531 25.7617 221.969 24.8828 222.844 24.1641C223.727 23.4453 224.852 23.0859 226.219 23.0859C227.656 23.0859 228.82 23.457 229.711 24.1992C230.609 24.9414 231.059 25.8906 231.059 27.0469H228.879C228.879 26.4531 228.625 25.9414 228.117 25.5117C227.617 25.082 226.984 24.8672 226.219 24.8672C225.43 24.8672 224.812 25.0391 224.367 25.3828C223.922 25.7266 223.699 26.1758 223.699 26.7305C223.699 27.2539 223.906 27.6484 224.32 27.9141C224.734 28.1797 225.48 28.4336 226.559 28.6758C227.645 28.918 228.523 29.207 229.195 29.543C229.867 29.8789 230.363 30.2852 230.684 30.7617C231.012 31.2305 231.176 31.8047 231.176 32.4844C231.176 33.6172 230.723 34.5273 229.816 35.2148C228.91 35.8945 227.734 36.2344 226.289 36.2344C225.273 36.2344 224.375 36.0547 223.594 35.6953C222.812 35.3359 222.199 34.8359 221.754 34.1953C221.316 33.5469 221.098 32.8477 221.098 32.0977H223.266C223.305 32.8242 223.594 33.4023 224.133 33.832C224.68 34.2539 225.398 34.4648 226.289 34.4648C227.109 34.4648 227.766 34.3008 228.258 33.9727C228.758 33.6367 229.008 33.1914 229.008 32.6367Z" fill="#F4B142"/><path d="M27.0625 25.1719C26.6406 28.7812 25.3047 31.5703 23.0547 33.5391C20.8203 35.4922 17.8438 36.4688 14.125 36.4688C10.0938 36.4688 6.85938 35.0234 4.42188 32.1328C2 29.2422 0.789062 25.375 0.789062 20.5312V17.25C0.789062 14.0781 1.35156 11.2891 2.47656 8.88281C3.61719 6.47656 5.22656 4.63281 7.30469 3.35156C9.38281 2.05469 11.7891 1.40625 14.5234 1.40625C18.1484 1.40625 21.0547 2.42187 23.2422 4.45312C25.4297 6.46875 26.7031 9.26562 27.0625 12.8438H22.5391C22.1484 10.125 21.2969 8.15625 19.9844 6.9375C18.6875 5.71875 16.8672 5.10938 14.5234 5.10938C11.6484 5.10938 9.39062 6.17187 7.75 8.29688C6.125 10.4219 5.3125 13.4453 5.3125 17.3672V20.6719C5.3125 24.375 6.08594 27.3203 7.63281 29.5078C9.17969 31.6953 11.3438 32.7891 14.125 32.7891C16.625 32.7891 18.5391 32.2266 19.8672 31.1016C21.2109 29.9609 22.1016 27.9844 22.5391 25.1719H27.0625ZM44.8047 14.5312C44.1484 14.4219 43.4375 14.3672 42.6719 14.3672C39.8281 14.3672 37.8984 15.5781 36.8828 18V36H32.5469V10.6406H36.7656L36.8359 13.5703C38.2578 11.3047 40.2734 10.1719 42.8828 10.1719C43.7266 10.1719 44.3672 10.2812 44.8047 10.5V14.5312ZM53.5234 36H49.1875V10.6406H53.5234V36ZM48.8359 3.91406C48.8359 3.21094 49.0469 2.61719 49.4688 2.13281C49.9062 1.64844 50.5469 1.40625 51.3906 1.40625C52.2344 1.40625 52.875 1.64844 53.3125 2.13281C53.75 2.61719 53.9688 3.21094 53.9688 3.91406C53.9688 4.61719 53.75 5.20312 53.3125 5.67188C52.875 6.14062 52.2344 6.375 51.3906 6.375C50.5469 6.375 49.9062 6.14062 49.4688 5.67188C49.0469 5.20312 48.8359 4.61719 48.8359 3.91406ZM66.3672 4.5V10.6406H71.1016V13.9922H66.3672V29.7188C66.3672 30.7344 66.5781 31.5 67 32.0156C67.4219 32.5156 68.1406 32.7656 69.1562 32.7656C69.6562 32.7656 70.3438 32.6719 71.2188 32.4844V36C70.0781 36.3125 68.9688 36.4688 67.8906 36.4688C65.9531 36.4688 64.4922 35.8828 63.5078 34.7109C62.5234 33.5391 62.0312 31.875 62.0312 29.7188V13.9922H57.4141V10.6406H62.0312V4.5H66.3672ZM80.8984 36H76.5625V10.6406H80.8984V36ZM76.2109 3.91406C76.2109 3.21094 76.4219 2.61719 76.8438 2.13281C77.2812 1.64844 77.9219 1.40625 78.7656 1.40625C79.6094 1.40625 80.25 1.64844 80.6875 2.13281C81.125 2.61719 81.3438 3.21094 81.3438 3.91406C81.3438 4.61719 81.125 5.20312 80.6875 5.67188C80.25 6.14062 79.6094 6.375 78.7656 6.375C77.9219 6.375 77.2812 6.14062 76.8438 5.67188C76.4219 5.20312 76.2109 4.61719 76.2109 3.91406ZM98.0312 32.9297C99.5781 32.9297 100.93 32.4609 102.086 31.5234C103.242 30.5859 103.883 29.4141 104.008 28.0078H108.109C108.031 29.4609 107.531 30.8438 106.609 32.1562C105.688 33.4688 104.453 34.5156 102.906 35.2969C101.375 36.0781 99.75 36.4688 98.0312 36.4688C94.5781 36.4688 91.8281 35.3203 89.7812 33.0234C87.75 30.7109 86.7344 27.5547 86.7344 23.5547V22.8281C86.7344 20.3594 87.1875 18.1641 88.0938 16.2422C89 14.3203 90.2969 12.8281 91.9844 11.7656C93.6875 10.7031 95.6953 10.1719 98.0078 10.1719C100.852 10.1719 103.211 11.0234 105.086 12.7266C106.977 14.4297 107.984 16.6406 108.109 19.3594H104.008C103.883 17.7188 103.258 16.375 102.133 15.3281C101.023 14.2656 99.6484 13.7344 98.0078 13.7344C95.8047 13.7344 94.0938 14.5312 92.875 16.125C91.6719 17.7031 91.0703 19.9922 91.0703 22.9922V23.8125C91.0703 26.7344 91.6719 28.9844 92.875 30.5625C94.0781 32.1406 95.7969 32.9297 98.0312 32.9297ZM120.062 24.2578L117.344 27.0938V36H113.008V0H117.344V21.7734L119.664 18.9844L127.562 10.6406H132.836L122.969 21.2344L133.984 36H128.898L120.062 24.2578ZM147.367 36.4688C143.93 36.4688 141.133 35.3438 138.977 33.0938C136.82 30.8281 135.742 27.8047 135.742 24.0234V23.2266C135.742 20.7109 136.219 18.4688 137.172 16.5C138.141 14.5156 139.484 12.9688 141.203 11.8594C142.938 10.7344 144.812 10.1719 146.828 10.1719C150.125 10.1719 152.688 11.2578 154.516 13.4297C156.344 15.6016 157.258 18.7109 157.258 22.7578V24.5625H140.078C140.141 27.0625 140.867 29.0859 142.258 30.6328C143.664 32.1641 145.445 32.9297 147.602 32.9297C149.133 32.9297 150.43 32.6172 151.492 31.9922C152.555 31.3672 153.484 30.5391 154.281 29.5078L156.93 31.5703C154.805 34.8359 151.617 36.4688 147.367 36.4688ZM146.828 13.7344C145.078 13.7344 143.609 14.375 142.422 15.6562C141.234 16.9219 140.5 18.7031 140.219 21H152.922V20.6719C152.797 18.4688 152.203 16.7656 151.141 15.5625C150.078 14.3438 148.641 13.7344 146.828 13.7344ZM174.555 14.5312C173.898 14.4219 173.188 14.3672 172.422 14.3672C169.578 14.3672 167.648 15.5781 166.633 18V36H162.297V10.6406H166.516L166.586 13.5703C168.008 11.3047 170.023 10.1719 172.633 10.1719C173.477 10.1719 174.117 10.2812 174.555 10.5V14.5312Z" fill="white"/></svg>