<svg width="102" height="62" viewBox="0 0 102 62" fill="none" xmlns="http://www.w3.org/2000/svg">
<path d="M8.53906 4.74219H0.664062V3.06641H8.53906V4.74219ZM10.4609 2.9375H12.5234L19.6484 21.4648H17.5859L10.4609 2.9375ZM30.6172 21.7695H19.8828V20H30.6172V21.7695ZM32.2227 13.0742C32.2227 11.3086 32.457 9.61328 32.9258 7.98828C33.4023 6.36328 34.1094 4.88672 35.0469 3.55859C35.9844 2.23047 36.957 1.29297 37.9648 0.746094L38.4102 2.17578C37.2695 3.05078 36.332 4.38672 35.5977 6.18359C34.8711 7.98047 34.4727 9.99219 34.4023 12.2188L34.3906 13.2148C34.3906 16.2305 34.9414 18.8477 36.043 21.0664C36.707 22.3945 37.4961 23.4336 38.4102 24.1836L37.9648 25.5078C36.9258 24.9297 35.9336 23.9609 34.9883 22.6016C33.1445 19.9453 32.2227 16.7695 32.2227 13.0742ZM49.8112 1.952L47.9632 2.576C48.5632 3.824 49.9312 7.544 50.3152 8.912L52.1872 8.264C51.7792 6.92 50.3392 3.104 49.8112 1.952ZM60.4672 3.488L58.2592 2.864C57.7792 6.464 56.3152 10.304 54.4192 12.728C51.9952 15.8 48.4192 18.104 44.9872 19.112L46.6432 20.792C50.0272 19.592 53.5792 17.12 56.0512 13.856C58.0192 11.264 59.3152 7.832 60.0352 4.856C60.1312 4.472 60.2992 3.896 60.4672 3.488ZM43.1152 3.392L41.2192 4.088C41.7952 5.12 43.4512 9.176 43.9072 10.664L45.8032 9.968C45.2512 8.408 43.7392 4.736 43.1152 3.392ZM69.5117 13.1914C69.5117 14.9336 69.2812 16.6055 68.8203 18.207C68.3672 19.8008 67.668 21.2734 66.7227 22.625C65.7852 23.9766 64.8008 24.9375 63.7695 25.5078L63.3125 24.1836C64.5156 23.2617 65.4805 21.832 66.207 19.8945C66.9414 17.9492 67.3164 15.793 67.332 13.4258V13.0508C67.332 11.4102 67.1602 9.88672 66.8164 8.48047C66.4727 7.06641 65.9922 5.80078 65.375 4.68359C64.7656 3.56641 64.0781 2.69531 63.3125 2.07031L63.7695 0.746094C64.8008 1.31641 65.7812 2.26953 66.7109 3.60547C67.6484 4.94141 68.3477 6.41406 68.8086 8.02344C69.2773 9.63281 69.5117 11.3555 69.5117 13.1914ZM81.9922 21.7695H71.2578V20H81.9922V21.7695ZM84.1133 21.4648H82.25L89.375 2.9375H91.2266L84.1133 21.4648ZM101.469 4.74219H93.5938V3.06641H101.469V4.74219Z" fill="black"/>
<path d="M13.1758 59H11.9507L7.29785 51.8779V59H6.07275V49.7578H7.29785L11.9634 56.9116V49.7578H13.1758V59ZM14.8452 55.5024C14.8452 54.8296 14.9764 54.2244 15.2388 53.687C15.5054 53.1496 15.8735 52.7349 16.3433 52.4429C16.8172 52.1509 17.3568 52.0049 17.9619 52.0049C18.8971 52.0049 19.6525 52.3286 20.228 52.9761C20.8078 53.6235 21.0977 54.4847 21.0977 55.5596V55.6421C21.0977 56.3107 20.9686 56.9116 20.7104 57.4448C20.4565 57.9738 20.0905 58.3864 19.6123 58.6826C19.1383 58.9788 18.5924 59.127 17.9746 59.127C17.0436 59.127 16.2882 58.8032 15.7085 58.1558C15.133 57.5083 14.8452 56.6514 14.8452 55.585V55.5024ZM16.0259 55.6421C16.0259 56.4038 16.2015 57.0153 16.5527 57.4766C16.9082 57.9378 17.3822 58.1685 17.9746 58.1685C18.5713 58.1685 19.0452 57.9357 19.3965 57.4702C19.7477 57.0005 19.9233 56.3446 19.9233 55.5024C19.9233 54.7492 19.7435 54.1398 19.3838 53.6743C19.0283 53.2046 18.5544 52.9697 17.9619 52.9697C17.3822 52.9697 16.9146 53.2004 16.5591 53.6616C16.2036 54.1229 16.0259 54.783 16.0259 55.6421ZM27.0708 59H25.8965V52.1318H27.0708V59ZM25.8013 50.3101C25.8013 50.1196 25.8584 49.9588 25.9727 49.8276C26.0911 49.6965 26.2646 49.6309 26.4932 49.6309C26.7217 49.6309 26.8952 49.6965 27.0137 49.8276C27.1322 49.9588 27.1914 50.1196 27.1914 50.3101C27.1914 50.5005 27.1322 50.6592 27.0137 50.7861C26.8952 50.9131 26.7217 50.9766 26.4932 50.9766C26.2646 50.9766 26.0911 50.9131 25.9727 50.7861C25.8584 50.6592 25.8013 50.5005 25.8013 50.3101ZM30.0605 52.1318L30.0923 52.8936C30.5959 52.3011 31.2751 52.0049 32.1299 52.0049C33.0905 52.0049 33.7443 52.373 34.0913 53.1094C34.3198 52.7793 34.616 52.5127 34.98 52.3096C35.3481 52.1064 35.7819 52.0049 36.2812 52.0049C37.7878 52.0049 38.5537 52.8026 38.5791 54.3979V59H37.4048V54.4678C37.4048 53.9769 37.2926 53.6108 37.0684 53.3696C36.8441 53.1242 36.4674 53.0015 35.9385 53.0015C35.5026 53.0015 35.1408 53.1326 34.853 53.395C34.5653 53.6532 34.3981 54.0023 34.3516 54.4424V59H33.1709V54.4995C33.1709 53.5008 32.6821 53.0015 31.7046 53.0015C30.9344 53.0015 30.4076 53.3294 30.124 53.9854V59H28.9497V52.1318H30.0605ZM44.5967 59C44.529 58.8646 44.474 58.6234 44.4316 58.2764C43.8857 58.8434 43.234 59.127 42.4766 59.127C41.7995 59.127 41.243 58.9365 40.8071 58.5557C40.3755 58.1706 40.1597 57.6839 40.1597 57.0957C40.1597 56.3805 40.4305 55.8262 40.9722 55.4326C41.5181 55.0348 42.284 54.8359 43.27 54.8359H44.4126V54.2964C44.4126 53.8859 44.2899 53.5601 44.0444 53.3188C43.799 53.0734 43.4372 52.9507 42.959 52.9507C42.54 52.9507 42.1888 53.0565 41.9053 53.2681C41.6217 53.4797 41.48 53.7357 41.48 54.0361H40.2993C40.2993 53.6934 40.4199 53.3633 40.6611 53.0459C40.9066 52.7243 41.2367 52.4704 41.6514 52.2842C42.0703 52.098 42.5295 52.0049 43.0288 52.0049C43.8201 52.0049 44.4401 52.2038 44.8887 52.6016C45.3372 52.9951 45.57 53.5389 45.5869 54.2329V57.394C45.5869 58.0246 45.6673 58.526 45.8281 58.8984V59H44.5967ZM42.6479 58.105C43.0161 58.105 43.3652 58.0098 43.6953 57.8193C44.0254 57.6289 44.2645 57.3813 44.4126 57.0767V55.6675H43.4922C42.0534 55.6675 41.334 56.0885 41.334 56.9307C41.334 57.2988 41.4567 57.5866 41.7021 57.7939C41.9476 58.0013 42.2629 58.105 42.6479 58.105ZM47.1484 55.5088C47.1484 54.4382 47.396 53.5876 47.8911 52.957C48.3862 52.3223 49.0422 52.0049 49.8589 52.0049C50.6968 52.0049 51.3506 52.3011 51.8203 52.8936L51.8774 52.1318H52.9502V58.835C52.9502 59.7236 52.6857 60.424 52.1567 60.936C51.632 61.4481 50.9253 61.7041 50.0366 61.7041C49.5415 61.7041 49.057 61.5983 48.583 61.3867C48.109 61.1751 47.7472 60.8853 47.4976 60.5171L48.1069 59.8125C48.6105 60.4346 49.2262 60.7456 49.9541 60.7456C50.5254 60.7456 50.9697 60.5848 51.2871 60.2632C51.6087 59.9416 51.7695 59.4888 51.7695 58.9048V58.3145C51.2998 58.8561 50.6587 59.127 49.8462 59.127C49.0422 59.127 48.3905 58.8032 47.8911 58.1558C47.396 57.5083 47.1484 56.626 47.1484 55.5088ZM48.3291 55.6421C48.3291 56.4165 48.4878 57.0259 48.8052 57.4702C49.1226 57.9103 49.5669 58.1304 50.1382 58.1304C50.8787 58.1304 51.4225 57.7939 51.7695 57.1211V53.9854C51.4098 53.3294 50.8703 53.0015 50.1509 53.0015C49.5796 53.0015 49.1331 53.2236 48.8115 53.668C48.4899 54.1123 48.3291 54.7703 48.3291 55.6421ZM57.5776 59.127C56.6466 59.127 55.8892 58.8223 55.3052 58.2129C54.7212 57.5993 54.4292 56.7804 54.4292 55.7563V55.5405C54.4292 54.8592 54.5583 54.252 54.8164 53.7188C55.0788 53.1813 55.4427 52.7624 55.9082 52.4619C56.3779 52.1572 56.8857 52.0049 57.4316 52.0049C58.3245 52.0049 59.0186 52.299 59.5137 52.8872C60.0088 53.4754 60.2563 54.3175 60.2563 55.4136V55.9023H55.6035C55.6204 56.5794 55.8172 57.1274 56.1938 57.5464C56.5747 57.9611 57.0571 58.1685 57.6411 58.1685C58.0558 58.1685 58.4071 58.0838 58.6948 57.9146C58.9826 57.7453 59.2344 57.521 59.4502 57.2417L60.1675 57.8003C59.592 58.6847 58.7287 59.127 57.5776 59.127ZM57.4316 52.9697C56.9577 52.9697 56.5599 53.1432 56.2383 53.4902C55.9167 53.833 55.7178 54.3154 55.6416 54.9375H59.082V54.8486C59.0482 54.252 58.8874 53.7907 58.5996 53.4648C58.3118 53.1348 57.9225 52.9697 57.4316 52.9697ZM65.4233 59V53.0396H64.3379V52.1318H65.4233V51.4272C65.4233 50.6909 65.6201 50.1217 66.0137 49.7197C66.4072 49.3177 66.9637 49.1167 67.6831 49.1167C67.9539 49.1167 68.2227 49.1527 68.4893 49.2246L68.4258 50.1768C68.2269 50.1387 68.0153 50.1196 67.791 50.1196C67.4102 50.1196 67.116 50.2318 66.9087 50.4561C66.7013 50.6761 66.5977 50.9935 66.5977 51.4082V52.1318H68.064V53.0396H66.5977V59H65.4233ZM69.0542 55.5024C69.0542 54.8296 69.1854 54.2244 69.4478 53.687C69.7144 53.1496 70.0825 52.7349 70.5522 52.4429C71.0262 52.1509 71.5658 52.0049 72.1709 52.0049C73.1061 52.0049 73.8615 52.3286 74.437 52.9761C75.0168 53.6235 75.3066 54.4847 75.3066 55.5596V55.6421C75.3066 56.3107 75.1776 56.9116 74.9194 57.4448C74.6655 57.9738 74.2995 58.3864 73.8213 58.6826C73.3473 58.9788 72.8014 59.127 72.1836 59.127C71.2526 59.127 70.4972 58.8032 69.9175 58.1558C69.342 57.5083 69.0542 56.6514 69.0542 55.585V55.5024ZM70.2349 55.6421C70.2349 56.4038 70.4105 57.0153 70.7617 57.4766C71.1172 57.9378 71.5911 58.1685 72.1836 58.1685C72.7803 58.1685 73.2542 57.9357 73.6055 57.4702C73.9567 57.0005 74.1323 56.3446 74.1323 55.5024C74.1323 54.7492 73.9525 54.1398 73.5928 53.6743C73.2373 53.2046 72.7633 52.9697 72.1709 52.9697C71.5911 52.9697 71.1235 53.2004 70.7681 53.6616C70.4126 54.1229 70.2349 54.783 70.2349 55.6421ZM81.0195 58.3208C80.5625 58.8582 79.8918 59.127 79.0073 59.127C78.2752 59.127 77.7166 58.9154 77.3315 58.4922C76.9507 58.0648 76.7581 57.4342 76.7539 56.6006V52.1318H77.9282V56.5688C77.9282 57.6099 78.3514 58.1304 79.1978 58.1304C80.0949 58.1304 80.6916 57.7961 80.9878 57.1274V52.1318H82.1621V59H81.0449L81.0195 58.3208ZM85.063 52.1318L85.1011 52.9951C85.6258 52.335 86.3114 52.0049 87.1577 52.0049C88.6092 52.0049 89.3413 52.8237 89.354 54.4614V59H88.1797V54.4551C88.1755 53.96 88.0612 53.5939 87.8369 53.3569C87.6169 53.12 87.272 53.0015 86.8022 53.0015C86.4214 53.0015 86.0871 53.103 85.7993 53.3062C85.5116 53.5093 85.2873 53.7759 85.1265 54.106V59H83.9521V52.1318H85.063ZM90.8394 55.5088C90.8394 54.4551 91.089 53.6087 91.5884 52.9697C92.0877 52.3265 92.7415 52.0049 93.5498 52.0049C94.3538 52.0049 94.9907 52.2799 95.4604 52.8301V49.25H96.6348V59H95.5557L95.4985 58.2637C95.0288 58.8392 94.375 59.127 93.5371 59.127C92.7415 59.127 92.092 58.8011 91.5884 58.1494C91.089 57.4977 90.8394 56.6471 90.8394 55.5977V55.5088ZM92.0137 55.6421C92.0137 56.4207 92.1745 57.0301 92.4961 57.4702C92.8177 57.9103 93.262 58.1304 93.8291 58.1304C94.5739 58.1304 95.1177 57.7961 95.4604 57.1274V53.9727C95.1092 53.3252 94.5697 53.0015 93.8418 53.0015C93.2663 53.0015 92.8177 53.2236 92.4961 53.668C92.1745 54.1123 92.0137 54.7703 92.0137 55.6421Z" fill="black"/>
</svg>
