<svg width="101" height="26" viewBox="0 0 101 26" fill="none" xmlns="http://www.w3.org/2000/svg">
<path d="M8.05599 4.55093H0.180993V2.87515H8.05599V4.55093ZM9.97787 2.74625H12.0404L19.1654 21.2736H17.1029L9.97787 2.74625ZM30.1341 21.5783H19.3997V19.8087H30.1341V21.5783ZM31.7396 12.883C31.7396 11.1173 31.974 9.42203 32.4427 7.79703C32.9193 6.17203 33.6263 4.69547 34.5638 3.36734C35.5013 2.03922 36.474 1.10172 37.4818 0.55484L37.9271 1.98453C36.7865 2.85953 35.849 4.19547 35.1146 5.99234C34.388 7.78922 33.9896 9.80093 33.9193 12.0275L33.9076 13.0236C33.9076 16.0392 34.4583 18.6564 35.5599 20.8752C36.224 22.2033 37.013 23.2423 37.9271 23.9923L37.4818 25.3166C36.4427 24.7384 35.4505 23.7697 34.5052 22.4103C32.6615 19.7541 31.7396 16.5783 31.7396 12.883ZM49.3281 1.76075L47.4801 2.38475C48.0801 3.63275 49.4481 7.35275 49.8321 8.72075L51.7041 8.07275C51.2961 6.72875 49.8561 2.91274 49.3281 1.76075ZM59.9841 3.29675L57.7761 2.67275C57.2961 6.27275 55.8321 10.1127 53.9361 12.5367C51.5121 15.6087 47.9361 17.9127 44.5041 18.9207L46.1601 20.6007C49.5441 19.4007 53.0961 16.9287 55.5681 13.6647C57.5361 11.0727 58.8321 7.64075 59.5521 4.66475C59.6481 4.28075 59.8161 3.70475 59.9841 3.29675ZM42.6321 3.20075L40.7361 3.89675C41.3121 4.92875 42.9681 8.98475 43.4241 10.4727L45.3201 9.77675C44.7681 8.21675 43.2561 4.54475 42.6321 3.20075ZM69.0286 13.0002C69.0286 14.7423 68.7982 16.4142 68.3372 18.0158C67.8841 19.6095 67.1849 21.0822 66.2396 22.4337C65.3021 23.7853 64.3177 24.7462 63.2865 25.3166L62.8294 23.9923C64.0326 23.0705 64.9974 21.6408 65.724 19.7033C66.4583 17.758 66.8333 15.6017 66.849 13.2345V12.8595C66.849 11.2189 66.6771 9.69547 66.3333 8.28922C65.9896 6.87515 65.5091 5.60953 64.8919 4.49234C64.2826 3.37515 63.5951 2.50406 62.8294 1.87906L63.2865 0.55484C64.3177 1.12515 65.2982 2.07828 66.2279 3.41422C67.1654 4.75015 67.8646 6.22281 68.3255 7.83218C68.7943 9.44156 69.0286 11.1642 69.0286 13.0002ZM81.5091 21.5783H70.7747V19.8087H81.5091V21.5783ZM83.6302 21.2736H81.7669L88.8919 2.74625H90.7435L83.6302 21.2736ZM100.986 4.55093H93.1107V2.87515H100.986V4.55093Z" fill="black"/>
</svg>
